PathFileType	4	(X/Y/Z)	/Users/itak/Documents/Research/Walk-IL/dataset/trc/00469_00167.trc
DataRate	CameraRate	NumFrames	NumMarkers	Units	OrigDataRate	OrigDataStartFrame	OrigNumFrames
100.000000	100.000000	4	53	mm	100.000000	0	628
Frame#	Time	RPSI			LPSI			L3			STRN			T10			C7			CLAV			RBAK			LBAK			LSHO			LUPA			LAEL			LAOL			LWTS			LWPS			LFRA			LIFD			LHPS			LHTS			RSHO			RUPA			RAEL			RAOL			RWTS			RWPS			RFRA			RIFD			RHTS			RHPS			RBHD			LFHD			RFHD			LBHD			LHIP			RHIP			RASI			LASI			LKNE			LTHI			LANK			LTIP			LTOE			LMT1			LMT5			LHEE			RKNE			RTHI			RANK			RTIP			RTOE			RMT1			RMT5			RHEE			
		X1	Y1	Z1	X2	Y2	Z2	X3	Y3	Z3	X4	Y4	Z4	X5	Y5	Z5	X6	Y6	Z6	X7	Y7	Z7	X8	Y8	Z8	X9	Y9	Z9	X10	Y10	Z10	X11	Y11	Z11	X12	Y12	Z12	X13	Y13	Z13	X14	Y14	Z14	X15	Y15	Z15	X16	Y16	Z16	X17	Y17	Z17	X18	Y18	Z18	X19	Y19	Z19	X20	Y20	Z20	X21	Y21	Z21	X22	Y22	Z22	X23	Y23	Z23	X24	Y24	Z24	X25	Y25	Z25	X26	Y26	Z26	X27	Y27	Z27	X28	Y28	Z28	X29	Y29	Z29	X30	Y30	Z30	X31	Y31	Z31	X32	Y32	Z32	X33	Y33	Z33	X34	Y34	Z34	X35	Y35	Z35	X36	Y36	Z36	X37	Y37	Z37	X38	Y38	Z38	X39	Y39	Z39	X40	Y40	Z40	X41	Y41	Z41	X42	Y42	Z42	X43	Y43	Z43	X44	Y44	Z44	X45	Y45	Z45	X46	Y46	Z46	X47	Y47	Z47	X48	Y48	Z48	X49	Y49	Z49	X50	Y50	Z50	X51	Y51	Z51	X52	Y52	Z52	X53	Y53	Z53	

1	0	-1325.299438476562	969.0599365234375	-467.1044006347656	-1308.660034179688	965.66015625	-607.1104125976562	-1305.17626953125	1059.6240234375	-521.7249755859375	-1035.684936523438	1261.952514648438	-508.8557434082031	-1325.1923828125	1183.943115234375	-526.6129760742188	-1262.989990234375	1452.181274414062	-512.359375	-1072.411010742188	1374.277587890625	-514.9796142578125	-1327.8203125	1333.122680664062	-419.3516845703125	-1287.817626953125	1403.049926757812	-613.2620239257812	-1180.8603515625	1426.8837890625	-685.940673828125	-1183.3828125	1311.544311523438	-787.3173217773438	-1157.693603515625	1099.739624023438	-827.7613525390625	-1234.1552734375	1085.854736328125	-759.5114135742188	-1088.092163085938	894.0410766601562	-811.1956176757812	-1141.238403320312	880.9876098632812	-862.6534423828125	-1143.814819335938	1012.88427734375	-846.235107421875	-1074.382080078125	738.06884765625	-827.0012817382812	-1130.68359375	804.068115234375	-865.7115478515625	-1072.81201171875	811.5338745117188	-824.4825439453125	-1201.980712890625	1428.633422851562	-348.9705505371094	-1223.08740234375	1371.189453125	-271.2907409667969	-1212.520874023438	1086.568725585938	-204.3484191894531	-1258.535278320312	1065.776245117188	-249.6321563720703	-1095.969848632812	884.4442138671875	-228.8769989013672	-1167.115844726562	868.9284057617188	-178.0597076416016	-1207.310913085938	1028.755126953125	-191.8116760253906	-1088.1982421875	729.0536499023438	-212.2249908447266	-1078.65673828125	788.860107421875	-213.7034606933594	-1148.126708984375	783.224853515625	-177.6723327636719	-1184.417602539062	1649.545043945312	-420.6901245117188	-1048.775146484375	1667.551025390625	-575.9217529296875	-1050.020751953125	1666.915405273438	-445.5401000976562	-1199.37939453125	1654.235595703125	-597.3209228515625	-1163.748168945312	864.5377197265625	-710.227783203125	-1229.387939453125	862.6578369140625	-319.9439392089844	-1113.300659179688	903.00732421875	-364.8173828125	-1072.907958984375	901.849853515625	-621.2584228515625	-1174.805541992188	445.490234375	-675.7483520507812	-1143.25244140625	597.3037109375	-695.654541015625	-1268.07177734375	42.34036636352539	-684.0623779296875	-1189.068115234375	298.1004028320312	-690.9996948242188	-1046.6884765625	42.36388397216797	-585.50634765625	-1125.239868164062	49.95871734619141	-567.5064086914062	-1113.73095703125	45.37693023681641	-680.5426635742188	-1321.24365234375	47.51764678955078	-626.8479614257812	-1213.737060546875	470.520751953125	-338.7119750976562	-1189.786010742188	729.3714599609375	-301.4610290527344	-1270.500122070312	48.75958251953125	-332.19384765625	-1215.7685546875	328.5301818847656	-326.7156372070312	-1055.044067382812	47.55988311767578	-375.4017028808594	-1118.245727539062	49.1102409362793	-413.4227905273438	-1137.674194335938	49.5789680480957	-306.1874389648438	-1335.3349609375	42.03614044189453	-378.2225952148438	
2	0.01	-1325.316650390625	969.0490112304688	-467.1217346191406	-1308.659790039062	965.6438598632812	-607.1237182617188	-1305.211547851562	1059.568969726562	-521.7635498046875	-1035.825317382812	1261.939208984375	-508.8348083496094	-1325.237060546875	1183.898193359375	-526.6686401367188	-1263.092041015625	1452.14111328125	-512.40087890625	-1072.716796875	1374.256225585938	-515.0490112304688	-1327.929077148438	1333.095581054688	-419.4420166015625	-1287.89697265625	1403.036987304688	-613.3161010742188	-1180.9228515625	1426.843505859375	-685.9664306640625	-1183.382934570312	1311.508422851562	-787.3167114257812	-1157.534301757812	1099.681518554688	-827.73193359375	-1234.036865234375	1085.768920898438	-759.5470581054688	-1087.857788085938	894.0148315429688	-811.0172729492188	-1140.959716796875	880.9629516601562	-862.53759765625	-1143.691650390625	1012.86328125	-846.1919555664062	-1074.351318359375	738.1137084960938	-827.031005859375	-1131.681274414062	803.283935546875	-865.328369140625	-1072.548095703125	811.4649658203125	-824.4412231445312	-1202.10986328125	1428.59716796875	-348.9855651855469	-1223.2470703125	1371.146606445312	-271.3566284179688	-1212.682373046875	1086.4970703125	-204.4176177978516	-1258.670043945312	1065.683837890625	-249.7234802246094	-1096.050903320312	884.430419921875	-228.9308929443359	-1167.191650390625	868.8703002929688	-178.1642303466797	-1207.43994140625	1028.685913085938	-191.9035339355469	-1088.180541992188	729.0441284179688	-212.2931976318359	-1078.671508789062	788.859619140625	-213.778076171875	-1148.169189453125	783.1842041015625	-177.7122802734375	-1184.50634765625	1649.554443359375	-420.6735534667969	-1048.822875976562	1667.516357421875	-575.875732421875	-1050.01904296875	1666.859375	-445.4642944335938	-1199.434814453125	1654.252319335938	-597.3087768554688	-1163.720458984375	864.5142822265625	-710.227783203125	-1229.417846679688	862.6476440429688	-319.9584655761719	-1113.303833007812	903.0162963867188	-364.805908203125	-1072.792236328125	901.879150390625	-621.1511840820312	-1174.79638671875	445.4771728515625	-675.7449340820312	-1143.23095703125	597.2984619140625	-695.6417846679688	-1268.072143554688	42.34063339233398	-684.06201171875	-1189.067749023438	298.1004028320312	-691.0015258789062	-1046.700927734375	42.36991882324219	-585.5018920898438	-1125.249145507812	49.947509765625	-567.5025634765625	-1113.73486328125	45.38134765625	-680.54296875	-1321.253173828125	47.54032135009766	-626.873046875	-1213.741577148438	470.5285949707031	-338.6988220214844	-1189.84375	729.364501953125	-301.4315795898438	-1270.500244140625	48.76693344116211	-332.1924438476562	-1215.761352539062	328.5218811035156	-326.71142578125	-1055.043701171875	47.56206512451172	-375.3999938964844	-1118.244018554688	49.10863876342773	-413.4247741699219	-1137.676513671875	49.58002090454102	-306.1949462890625	-1335.3330078125	42.03620529174805	-378.2216796875	
3	0.02	-1325.338134765625	969.0368041992188	-467.1405639648438	-1308.656005859375	965.6251220703125	-607.13720703125	-1305.253295898438	1059.5048828125	-521.809814453125	-1035.99072265625	1261.927734375	-508.8101501464844	-1325.29736328125	1183.841674804688	-526.740234375	-1263.220947265625	1452.089111328125	-512.452392578125	-1073.0302734375	1374.231689453125	-515.1119995117188	-1328.068603515625	1333.057006835938	-419.5518493652344	-1287.99658203125	1403.015869140625	-613.3804931640625	-1181.00341796875	1426.800659179688	-685.9957275390625	-1183.38916015625	1311.465209960938	-787.3146362304688	-1157.352783203125	1099.614013671875	-827.6913452148438	-1233.902465820312	1085.665283203125	-759.5896606445312	-1087.586059570312	893.9923706054688	-810.8040161132812	-1140.63134765625	880.928466796875	-862.384033203125	-1143.535888671875	1012.83740234375	-846.131103515625	-1074.236450195312	738.1587524414062	-827.0232543945312	-1132.5	802.5559692382812	-864.9237060546875	-1072.194580078125	811.4118041992188	-824.3445434570312	-1202.276245117188	1428.554565429688	-349.0032653808594	-1223.453735351562	1371.084594726562	-271.4343566894531	-1212.8916015625	1086.405517578125	-204.5140838623047	-1258.843139648438	1065.569458007812	-249.8453216552734	-1096.134399414062	884.4276123046875	-229.0073089599609	-1167.29052734375	868.7935180664062	-178.3002319335938	-1207.608154296875	1028.595458984375	-192.0239410400391	-1088.161254882812	729.0335083007812	-212.3906402587891	-1078.692504882812	788.8571166992188	-213.8980407714844	-1148.229858398438	783.134033203125	-177.7739562988281	-1184.612548828125	1649.560424804688	-420.6476440429688	-1048.881225585938	1667.471557617188	-575.8096923828125	-1050.033935546875	1666.7919921875	-445.3793029785156	-1199.499877929688	1654.278442382812	-597.2943115234375	-1163.685424804688	864.4894409179688	-710.2293090820312	-1229.457763671875	862.636474609375	-319.9731140136719	-1113.307983398438	903.0271606445312	-364.7925109863281	-1072.67138671875	901.9075317382812	-621.0499267578125	-1174.783203125	445.4618835449219	-675.7396240234375	-1143.20458984375	597.2901611328125	-695.626220703125	-1268.072631835938	42.34103393554688	-684.061767578125	-1189.065795898438	298.1005554199219	-691.002685546875	-1046.713134765625	42.37546539306641	-585.4970703125	-1125.259521484375	49.93576812744141	-567.4986572265625	-1113.73974609375	45.38704299926758	-680.543701171875	-1321.26220703125	47.56459045410156	-626.899658203125	-1213.747436523438	470.5391540527344	-338.6796875	-1189.909057617188	729.357666015625	-301.3985290527344	-1270.5	48.77376556396484	-332.1930236816406	-1215.753295898438	328.5125427246094	-326.7075805664062	-1055.04345703125	47.56398773193359	-375.3986511230469	-1118.242431640625	49.10549545288086	-413.4278259277344	-1137.6767578125	49.58237457275391	-306.2039794921875	-1335.330932617188	42.03638076782227	-378.2210998535156	
4	0.03	-1325.362670898438	969.0243530273438	-467.1595764160156	-1308.64794921875	965.6057739257812	-607.1492919921875	-1305.298828125	1059.436279296875	-521.8612670898438	-1036.168823242188	1261.920776367188	-508.7832641601562	-1325.372314453125	1183.776123046875	-526.8246459960938	-1263.370727539062	1452.02734375	-512.5118408203125	-1073.31103515625	1374.206298828125	-515.15576171875	-1328.23486328125	1333.0068359375	-419.6758117675781	-1288.112670898438	1402.985229492188	-613.4508056640625	-1181.10009765625	1426.760131835938	-686.0257568359375	-1183.403442382812	1311.417602539062	-787.3108520507812	-1157.16552734375	1099.54296875	-827.6397094726562	-1233.765991210938	1085.55078125	-759.6331176757812	-1087.299072265625	893.979248046875	-810.56884765625	-1140.27294921875	880.8834228515625	-862.19384765625	-1143.354248046875	1012.807495117188	-846.051513671875	-1074.02099609375	738.1934814453125	-826.9588623046875	-1133.007080078125	801.9727172851562	-864.5327758789062	-1071.766845703125	811.38525390625	-824.1834106445312	-1202.4755859375	1428.507568359375	-349.0220947265625	-1223.701538085938	1371.002563476562	-271.5186462402344	-1213.142456054688	1086.29638671875	-204.6378021240234	-1259.050537109375	1065.437744140625	-249.9946136474609	-1096.206909179688	884.4426879882812	-229.1083984375	-1167.410278320312	868.69921875	-178.4653167724609	-1207.811767578125	1028.485717773438	-192.1710815429688	-1088.143920898438	729.0208129882812	-212.5177459716797	-1078.72119140625	788.85107421875	-214.0687561035156	-1148.307495117188	783.0753784179688	-177.8646545410156	-1184.729125976562	1649.560424804688	-420.6110229492188	-1048.947387695312	1667.418579101562	-575.7241821289062	-1050.069458007812	1666.7177734375	-445.2914123535156	-1199.570434570312	1654.314575195312	-597.2774658203125	-1163.6435546875	864.4663696289062	-710.2329711914062	-1229.5068359375	862.6250610351562	-319.9841613769531	-1113.31298828125	903.0391845703125	-364.7778930664062	-1072.555786132812	901.931396484375	-620.965576171875	-1174.76708984375	445.4466247558594	-675.73291015625	-1143.174438476562	597.2787475585938	-695.6093139648438	-1268.072998046875	42.34157180786133	-684.0617065429688	-1189.06103515625	298.101318359375	-691.0022583007812	-1046.723754882812	42.37998962402344	-585.4921264648438	-1125.270629882812	49.92412185668945	-567.494873046875	-1113.745361328125	45.39372634887695	-680.5447998046875	-1321.269775390625	47.58843231201172	-626.9254150390625	-1213.753662109375	470.5514221191406	-338.6554565429688	-1189.975708007812	729.3515014648438	-301.364990234375	-1270.499267578125	48.77952194213867	-332.1958312988281	-1215.74462890625	328.5025634765625	-326.70458984375	-1055.04345703125	47.56533432006836	-375.3981628417969	-1118.241455078125	49.10063934326172	-413.4321594238281	-1137.675170898438	49.58594131469727	-306.213623046875	-1335.328857421875	42.03665161132812	-378.2209167480469	
